<?xml version="1.0" standalone="no"?>
<!DOCTYPE svg PUBLIC "-//W3C//DTD SVG 20010904//EN"
 "http://www.w3.org/TR/2001/REC-SVG-20010904/DTD/svg10.dtd">
<svg version="1.0" xmlns="http://www.w3.org/2000/svg"
 width="1206.000000pt" height="1144.000000pt" viewBox="0 0 1206.000000 1144.000000"
 preserveAspectRatio="xMidYMid meet">

<g transform="translate(0.000000,1144.000000) scale(0.100000,-0.100000)"
fill="#000000" stroke="none">
<path d="M2969 11155 c-191 -52 -308 -283 -364 -720 -26 -198 -16 -829 14
-990 5 -27 19 -129 30 -225 21 -177 64 -440 81 -495 5 -16 14 -64 20 -105 10
-68 9 -80 -10 -135 -67 -189 -164 -493 -205 -645 -26 -96 -55 -206 -66 -245
-28 -102 -76 -307 -95 -405 -29 -153 -33 -174 -33 -217 -1 -23 -5 -44 -9 -47
-5 -3 -44 3 -88 14 -170 40 -292 53 -524 53 -335 1 -570 -33 -570 -83 0 -3 4
-11 9 -19 7 -11 30 -12 142 -1 214 20 598 8 774 -23 77 -14 165 -34 195 -44
l55 -18 6 -180 c6 -186 11 -228 34 -330 28 -127 28 -124 -8 -129 -251 -38
-378 -71 -525 -137 -154 -69 -372 -235 -372 -284 0 -9 -20 -18 -57 -25 -321
-62 -601 -237 -799 -499 -113 -151 -216 -378 -259 -571 -9 -41 -21 -88 -26
-104 -5 -16 -9 -147 -9 -291 0 -230 2 -272 20 -344 52 -207 112 -328 221 -444
62 -67 96 -93 160 -127 280 -146 604 -40 739 241 70 145 86 292 55 504 -35
241 -4 419 93 526 58 65 110 91 193 97 168 12 327 -92 396 -258 81 -195 63
-470 -52 -790 -59 -165 -113 -287 -255 -580 -147 -304 -163 -341 -206 -496
-27 -94 -28 -109 -29 -319 0 -234 2 -252 57 -420 62 -191 214 -420 365 -548
74 -63 83 -74 94 -121 68 -295 221 -539 439 -702 93 -70 260 -160 355 -192
233 -77 10 -72 2989 -72 2946 0 2757 -4 2972 66 288 93 531 291 681 554 148
258 191 605 112 891 -97 350 -413 500 -742 352 -58 -26 -60 -26 -74 -7 -93
127 -168 196 -276 250 l-48 25 21 29 c36 50 99 194 115 261 23 99 20 345 -6
472 -44 223 -153 495 -307 770 l-85 152 -2 115 c-4 137 -20 204 -80 326 -47
97 -137 205 -214 259 -23 15 -38 31 -34 35 4 4 76 33 158 65 649 252 1085 637
1286 1135 l38 95 49 3 c65 4 280 -40 412 -84 135 -45 235 -96 363 -184 107
-73 137 -81 137 -35 0 41 -178 179 -329 255 -144 72 -341 129 -502 146 -37 3
-73 10 -80 15 -10 6 -8 30 9 121 24 124 42 307 42 435 l0 81 33 11 c65 21 275
60 385 71 109 12 569 8 699 -6 47 -5 52 -4 58 17 11 33 -10 43 -125 63 -303
50 -721 39 -972 -24 -42 -11 -79 -20 -81 -20 -3 0 -9 26 -12 58 -34 295 -211
978 -371 1428 l-53 151 25 119 c29 137 77 420 93 544 47 371 61 559 61 831 0
598 -119 983 -337 1090 -42 21 -61 24 -163 23 -106 0 -124 -3 -225 -38 -180
-61 -339 -150 -661 -371 -65 -45 -209 -157 -342 -267 -64 -54 -122 -98 -129
-98 -7 0 -55 16 -108 35 -383 138 -875 215 -1391 215 -517 0 -941 -64 -1366
-207 l-137 -46 -71 59 c-488 404 -896 655 -1152 709 -83 18 -186 18 -249 0z
m276 -172 c245 -77 673 -361 1106 -735 l57 -49 101 41 c256 101 560 171 946
217 213 25 757 25 970 0 386 -46 690 -116 945 -217 l101 -40 157 131 c313 262
573 444 795 559 267 138 418 161 513 78 85 -75 150 -267 186 -552 17 -129 16
-635 0 -811 -30 -314 -75 -619 -134 -903 -30 -148 -31 -155 -15 -200 8 -26 43
-126 77 -222 156 -443 332 -1138 341 -1348 l3 -53 -103 -45 c-103 -44 -234
-117 -286 -159 -22 -17 -27 -27 -22 -47 10 -40 32 -41 110 -1 78 39 282 123
300 123 9 0 4 -247 -8 -355 -7 -65 -38 -199 -48 -212 -6 -8 -35 -13 -76 -13
-86 0 -299 -28 -331 -43 -14 -7 -26 -22 -28 -34 -5 -36 24 -43 139 -33 132 12
259 13 259 1 0 -18 -59 -150 -99 -221 -236 -416 -651 -722 -1276 -940 -148
-51 -151 -52 -211 -41 -43 8 -588 11 -1806 11 l-1746 0 -13 32 c-12 29 -11 32
11 47 50 33 92 75 113 115 33 62 31 205 -5 304 -41 113 -103 208 -194 299 -96
95 -189 146 -351 190 -86 24 -116 27 -248 28 -118 0 -163 -4 -210 -18 -170
-53 -265 -100 -374 -189 -33 -26 -62 -48 -65 -48 -10 0 -95 120 -137 192 -40
68 -109 221 -109 240 0 8 47 9 153 3 232 -12 228 -12 241 8 31 48 -74 82 -292
93 -149 8 -143 5 -162 90 -32 138 -54 494 -31 494 16 0 224 -86 298 -123 72
-37 96 -39 107 -10 12 29 -5 52 -68 91 -72 46 -220 121 -289 147 -26 10 -50
21 -52 25 -8 13 24 220 60 381 86 390 241 921 353 1208 l28 73 -23 107 c-55
248 -113 638 -145 966 -19 194 -15 702 5 840 36 237 86 394 153 482 67 88 156
100 329 46z m-785 -5018 c62 -152 152 -310 232 -406 21 -26 38 -50 38 -54 0
-13 -63 -105 -72 -105 -4 0 -34 21 -66 47 -242 198 -503 289 -859 300 l-183 6
53 39 c73 55 196 121 305 163 144 56 366 104 461 102 l55 -2 36 -90z m1141
-240 c93 -16 167 -39 252 -79 160 -76 306 -304 295 -460 -4 -53 -8 -63 -38
-87 -18 -16 -54 -35 -78 -44 -120 -40 -219 4 -322 145 -45 63 -54 70 -84 70
-25 0 -40 -7 -55 -26 -19 -24 -21 -36 -15 -103 15 -190 -76 -360 -237 -437
-79 -39 -147 -59 -269 -79 -127 -22 -130 -23 -130 -49 0 -43 23 -50 164 -54
151 -4 231 10 335 60 128 62 252 216 279 344 4 22 12 39 17 38 6 0 40 -15 78
-33 43 -21 88 -35 127 -38 54 -5 63 -9 75 -33 14 -28 14 -28 -27 -45 -169 -67
-331 -240 -399 -425 -50 -137 -55 -222 -30 -470 12 -118 31 -267 42 -331 10
-64 19 -119 19 -123 0 -19 -250 34 -384 81 -190 66 -372 177 -477 290 -41 44
-49 60 -67 139 -12 49 -26 124 -32 167 -5 42 -14 111 -20 152 -23 171 -9 472
30 660 111 538 496 850 951 770z m-1741 -135 c245 -28 458 -116 641 -266 38
-31 71 -60 74 -63 2 -4 -8 -38 -21 -77 -33 -90 -72 -259 -80 -351 -4 -40 -9
-73 -12 -73 -2 0 -32 30 -65 66 -86 94 -205 170 -336 215 -65 23 -61 23 -61 3
0 -14 -7 -15 -45 -10 l-45 7 7 -96 6 -97 -64 7 c-231 25 -428 -127 -494 -380
-25 -96 -29 -253 -11 -392 20 -152 20 -262 1 -338 -35 -132 -121 -241 -233
-293 -50 -24 -69 -27 -158 -27 -96 0 -103 2 -176 38 -147 72 -260 231 -312
439 -84 328 -39 724 116 1033 200 397 551 629 1003 664 104 8 109 8 265 -9z
m5849 -885 c198 -47 373 -216 424 -410 15 -59 33 -185 25 -185 -2 0 -35 31
-73 68 -48 47 -94 80 -145 105 -147 72 4 67 -2020 67 -2026 0 -1887 4 -2024
-68 -41 -21 -103 -67 -145 -107 l-74 -70 6 72 c21 254 193 461 438 527 83 22
3494 23 3588 1z m43 -516 c90 -19 173 -66 237 -134 70 -75 97 -128 119 -233
15 -74 15 -86 -3 -201 -21 -137 -24 -141 -105 -141 -60 0 -236 -37 -331 -69
-226 -76 -378 -198 -459 -366 -88 -186 -123 -483 -79 -685 32 -151 124 -274
254 -339 94 -48 165 -62 303 -63 l123 0 -5 -26 c-3 -15 -46 -263 -96 -551 -50
-288 -100 -550 -110 -582 -56 -165 -185 -307 -346 -380 -134 -61 -83 -59
-1335 -59 -1108 0 -1148 1 -1223 20 -108 27 -209 83 -291 162 -121 114 -168
215 -209 447 -14 78 -30 158 -35 179 -5 20 -19 98 -31 172 -11 74 -28 171 -36
215 -47 257 -96 537 -114 650 -12 72 -61 360 -110 640 -163 943 -154 881 -142
957 29 190 171 343 355 383 82 18 3584 22 3669 4z m-5216 -314 c33 -121 92
-266 145 -357 l39 -67 -21 -53 c-170 -426 -273 -789 -294 -1038 -6 -67 5 -201
20 -255 5 -16 -6 -29 -54 -63 -100 -70 -172 -187 -212 -341 -10 -41 -20 -76
-22 -78 -7 -7 -146 68 -197 106 -60 45 -71 63 -105 160 -40 114 -55 211 -55
354 0 232 40 382 176 657 47 96 121 249 164 340 42 91 102 203 133 249 31 46
84 136 116 200 51 99 74 152 126 286 4 11 9 16 10 10 2 -5 16 -55 31 -110z
m5848 -320 c129 -281 187 -497 187 -699 1 -145 -16 -227 -67 -328 -48 -96
-159 -206 -269 -267 -44 -24 -96 -55 -116 -68 -20 -13 -85 -35 -150 -50 -93
-22 -138 -27 -249 -28 -155 0 -218 14 -296 68 -53 37 -71 64 -35 52 36 -11
171 -8 240 6 72 14 107 39 92 67 -8 15 -26 17 -128 17 -137 0 -198 16 -260 70
-56 48 -66 78 -61 183 4 75 8 93 32 129 16 23 43 53 61 67 44 34 141 82 190
94 128 33 125 32 125 57 0 13 -8 28 -17 33 -35 18 -234 -17 -306 -55 -16 -8
-31 -12 -34 -9 -4 3 10 39 30 79 81 164 261 280 514 331 125 26 316 45 330 33
9 -6 14 -5 17 4 4 12 48 281 63 378 l5 34 19 -29 c10 -16 48 -92 83 -169z
m-5456 -328 c110 -104 161 -141 292 -210 123 -65 245 -109 388 -142 57 -13
106 -25 108 -28 3 -2 -2 -69 -10 -148 -8 -79 -18 -185 -21 -235 -4 -50 -10
-96 -14 -102 -5 -9 -22 -9 -67 -1 -32 6 -93 9 -134 6 -179 -12 -323 -99 -466
-282 l-31 -39 -59 26 c-86 38 -137 50 -244 57 l-95 6 -6 30 c-12 57 -9 230 6
325 26 157 101 412 200 675 21 55 41 110 46 123 5 12 11 22 15 22 3 0 45 -37
92 -83z m702 -1027 c15 -8 15 -16 4 -82 -34 -196 -26 -425 22 -665 28 -143 30
-180 8 -211 -37 -53 -108 -18 -237 114 -75 78 -77 81 -121 204 -46 127 -112
257 -166 328 -22 29 -40 58 -40 65 0 21 87 124 139 166 60 47 123 78 182 91
49 10 183 4 209 -10z m4930 -27 c56 -28 184 -146 208 -194 13 -24 10 -31 -48
-116 -34 -51 -85 -147 -115 -217 -43 -101 -67 -142 -118 -204 -179 -214 -290
-274 -327 -178 -8 23 -6 56 15 160 39 206 46 279 43 468 l-3 178 90 51 c50 28
101 60 115 70 31 23 64 19 140 -18z m-5779 -209 c127 -37 218 -109 308 -243
46 -68 69 -113 161 -304 56 -117 81 -159 124 -203 47 -49 56 -54 75 -45 17 10
28 6 67 -25 56 -42 138 -84 214 -110 58 -19 206 -26 267 -12 31 7 32 6 39 -30
19 -116 44 -224 63 -273 43 -113 130 -235 227 -319 l52 -45 -535 -3 c-426 -2
-554 1 -631 12 -442 66 -794 369 -899 774 -33 128 -42 329 -20 452 46 258 169
389 368 390 36 0 90 -7 120 -16z m6584 -14 c100 -48 164 -137 207 -287 19 -67
22 -102 22 -248 0 -140 -4 -185 -21 -255 -106 -420 -456 -728 -903 -796 -74
-11 -220 -14 -653 -14 l-557 0 71 67 c155 146 221 278 264 526 l17 99 27 -8
c60 -16 109 -23 161 -23 112 -1 256 50 354 125 34 26 54 35 73 31 18 -3 35 4
61 27 50 44 91 111 169 282 139 302 249 425 432 486 80 26 209 21 276 -12z"/>
<path d="M3091 10708 c-112 -55 -158 -208 -168 -558 -8 -284 22 -661 77 -952
43 -224 74 -283 152 -283 52 0 73 24 191 216 48 79 118 187 155 239 84 118
297 334 459 464 140 112 170 143 179 191 8 46 -15 82 -118 181 -178 171 -482
384 -692 485 -97 47 -165 52 -235 17z m183 -302 c74 -41 174 -143 209 -213 14
-28 32 -80 38 -117 21 -113 6 -164 -136 -461 -147 -305 -191 -390 -202 -390
-9 0 -34 150 -58 355 -21 184 -31 603 -16 730 8 77 14 98 32 113 31 25 65 21
133 -17z"/>
<path d="M8533 10676 c-301 -152 -752 -506 -779 -612 -16 -62 15 -100 185
-236 163 -130 368 -338 452 -457 36 -51 109 -164 162 -250 112 -184 132 -206
189 -206 63 0 90 38 122 171 64 270 99 603 99 959 1 436 -41 598 -174 666 -70
35 -132 27 -256 -35z m201 -247 c32 -15 34 -22 48 -143 21 -192 -1 -621 -48
-931 -25 -165 -23 -164 -81 -44 -184 378 -273 569 -282 604 -49 184 65 405
256 500 55 27 72 30 107 14z"/>
<path d="M4274 9180 c-155 -50 -301 -187 -384 -361 -75 -159 -18 -185 204 -93
192 79 302 112 441 129 200 24 252 58 243 154 -8 82 -72 141 -188 173 -88 24
-234 23 -316 -2z"/>
<path d="M7284 9182 c-121 -36 -184 -98 -184 -183 0 -91 49 -120 242 -143 141
-18 218 -38 344 -91 141 -59 246 -95 280 -95 66 0 71 53 14 166 -75 151 -202
273 -340 331 -86 35 -260 43 -356 15z"/>
<path d="M4375 7812 c-174 -61 -312 -228 -377 -457 -30 -106 -33 -352 -5 -455
49 -176 165 -334 292 -396 55 -26 70 -29 165 -29 102 0 109 1 182 37 143 71
256 220 314 413 36 121 44 304 20 425 -44 214 -151 370 -306 444 -82 39 -204
47 -285 18z m365 -308 c60 -51 75 -95 75 -224 0 -105 -2 -119 -27 -166 -58
-110 -148 -147 -218 -88 -53 46 -73 97 -78 204 -5 119 19 193 83 258 38 37 48
42 88 42 34 0 53 -6 77 -26z"/>
<path d="M7213 7816 c-69 -23 -126 -61 -189 -128 -68 -74 -102 -132 -138 -238
-97 -290 -21 -648 181 -846 40 -40 89 -76 131 -96 63 -31 74 -33 172 -33 99 0
109 2 174 34 137 67 249 224 293 411 26 110 24 299 -5 413 -55 220 -181 391
-342 465 -67 31 -209 40 -277 18z m18 -309 c22 -14 47 -48 69 -91 33 -65 35
-75 35 -165 0 -80 -4 -105 -24 -149 -33 -72 -70 -102 -128 -102 -63 0 -103 33
-145 117 -30 62 -33 75 -33 163 0 84 3 102 29 153 46 94 124 123 197 74z"/>
<path d="M5820 6990 c-174 -23 -270 -88 -270 -182 0 -74 130 -183 268 -224 58
-17 60 -22 37 -100 -33 -114 -114 -192 -219 -214 -101 -21 -182 25 -291 164
-24 31 -35 37 -52 32 -38 -12 -38 -42 1 -121 43 -88 122 -165 192 -189 146
-50 323 10 409 137 l33 48 21 -35 c35 -55 117 -123 179 -147 37 -14 81 -22
128 -22 128 -2 237 71 304 202 35 70 38 106 11 121 -29 15 -44 5 -87 -57 -92
-133 -218 -173 -344 -108 -64 33 -121 115 -146 210 -19 69 -18 72 18 79 45 9
154 72 204 118 135 124 34 256 -218 288 -90 11 -97 11 -178 0z m200 -103 c37
-19 31 -39 -20 -64 -55 -28 -120 -29 -178 -3 -49 22 -53 46 -12 67 32 16 178
16 210 0z"/>
<path d="M4149 3997 c-107 -31 -192 -107 -230 -206 -28 -73 -22 -162 24 -413
38 -206 59 -260 121 -323 69 -68 125 -90 236 -90 85 0 101 3 148 28 112 59
174 152 180 273 5 94 -59 477 -92 549 -29 64 -97 132 -163 162 -63 29 -161 38
-224 20z"/>
<path d="M10664 10174 c-160 -29 -295 -89 -433 -192 -101 -75 -167 -145 -242
-254 -108 -158 -166 -332 -176 -529 -10 -172 15 -306 92 -501 l19 -47 -77
-234 c-42 -128 -77 -241 -77 -251 0 -12 6 -15 23 -11 119 27 481 95 505 95 11
0 62 -20 113 -44 259 -121 535 -133 802 -35 161 58 276 136 408 277 125 133
197 265 246 450 23 84 26 117 26 252 0 137 -3 167 -26 255 -50 187 -130 327
-271 472 -154 160 -330 255 -545 294 -120 22 -279 23 -387 3z m326 -138 c365
-60 647 -321 737 -683 24 -97 24 -314 -1 -408 -47 -178 -117 -298 -251 -430
-175 -173 -377 -256 -625 -256 -162 0 -315 40 -443 116 -32 19 -67 35 -78 35
-11 0 -90 -14 -175 -31 -86 -16 -158 -28 -161 -26 -2 3 19 77 47 165 l52 160
-26 44 c-117 200 -140 492 -56 732 138 398 563 650 980 582z"/>
<path d="M10589 9452 c-92 -48 -134 -163 -94 -260 10 -23 77 -99 178 -199 125
-126 168 -163 188 -163 39 0 350 319 367 376 24 83 7 151 -52 210 -75 76 -172
82 -267 19 l-51 -35 -34 26 c-77 59 -155 68 -235 26z"/>
</g>
</svg>
