<?xml version="1.0" standalone="no"?>
<!DOCTYPE svg PUBLIC "-//W3C//DTD SVG 20010904//EN"
 "http://www.w3.org/TR/2001/REC-SVG-20010904/DTD/svg10.dtd">
<svg version="1.0" xmlns="http://www.w3.org/2000/svg"
 width="921.000000pt" height="1109.000000pt" viewBox="0 0 921.000000 1109.000000"
 preserveAspectRatio="xMidYMid meet">

<g transform="translate(0.000000,1109.000000) scale(0.100000,-0.100000)"
fill="#000000" stroke="none">
<path d="M967 10980 c-58 -15 -89 -34 -134 -82 -60 -66 -89 -123 -123 -239
-52 -181 -64 -304 -64 -669 0 -314 21 -663 43 -723 5 -12 12 -49 15 -82 11
-91 35 -228 50 -282 7 -26 23 -83 36 -127 18 -66 20 -83 10 -105 -107 -227
-256 -684 -305 -936 -14 -71 -30 -147 -36 -168 -6 -21 -23 -109 -39 -195 -84
-458 -77 -429 -174 -710 -51 -146 -57 -200 -26 -249 37 -61 102 -76 222 -51
31 7 60 9 63 6 4 -3 -7 -37 -23 -75 -42 -95 -55 -150 -47 -199 14 -95 81 -135
240 -143 133 -7 139 -10 232 -123 99 -119 275 -293 375 -371 155 -120 361
-236 548 -307 47 -17 101 -38 120 -46 19 -8 91 -30 159 -49 68 -19 128 -38
132 -42 8 -8 -6 -104 -31 -218 -6 -27 -24 -144 -41 -260 -16 -115 -34 -230
-39 -255 -11 -50 -34 -303 -52 -570 -16 -239 -17 -905 0 -1040 17 -146 40
-282 61 -365 10 -38 24 -95 31 -125 25 -109 149 -459 224 -635 85 -200 256
-550 317 -650 22 -36 49 -86 61 -110 l22 -45 -36 -38 c-20 -20 -50 -59 -67
-86 -27 -43 -31 -59 -31 -118 0 -84 12 -110 84 -175 90 -83 254 -132 437 -133
132 0 348 45 451 95 l52 25 346 0 347 0 65 -29 c36 -17 112 -42 169 -58 94
-25 120 -27 279 -28 156 0 183 3 250 23 41 13 102 38 135 56 57 31 67 33 200
40 236 12 537 62 689 115 77 27 118 59 177 140 l48 66 118 24 c743 150 1346
454 1798 908 368 368 606 804 746 1363 75 303 105 558 96 829 -17 519 -175
913 -492 1227 -136 135 -227 200 -390 279 -200 97 -388 140 -610 140 -362 0
-665 -128 -903 -379 -103 -110 -150 -178 -217 -320 -145 -302 -166 -619 -56
-867 119 -269 304 -387 554 -351 264 38 404 228 437 595 12 136 32 200 80 251
l39 41 83 0 c96 -1 148 -20 237 -88 154 -119 279 -407 312 -722 14 -129 6
-371 -15 -495 -28 -169 -67 -296 -138 -455 -138 -308 -405 -590 -774 -817
-111 -69 -387 -208 -411 -208 -17 0 -18 15 -18 188 0 189 -9 264 -46 417 -71
287 -168 523 -439 1065 -229 460 -434 902 -612 1318 -123 291 -197 475 -192
483 2 4 18 10 35 14 43 10 281 106 357 144 291 147 474 294 773 621 l96 105
114 6 c88 4 123 10 154 26 113 59 128 145 54 312 -41 90 -40 92 24 75 154 -41
257 9 257 125 0 28 -25 117 -70 249 -63 183 -76 238 -125 501 -127 678 -205
963 -367 1342 l-49 116 25 89 c54 192 83 362 128 739 21 174 17 792 -5 920
-40 233 -88 367 -161 451 -159 185 -607 91 -1151 -242 -77 -47 -155 -98 -174
-112 -18 -15 -50 -38 -70 -51 -20 -13 -66 -50 -102 -82 -37 -33 -73 -59 -81
-59 -8 0 -69 18 -136 39 -109 36 -172 50 -482 111 -93 18 -225 35 -480 62
-160 17 -504 17 -640 0 -58 -7 -162 -19 -231 -26 -226 -25 -581 -98 -757 -155
-108 -36 -124 -37 -143 -14 -31 37 -208 170 -339 254 -350 225 -678 356 -915
364 -60 3 -127 0 -148 -5z m313 -153 c319 -91 765 -345 1013 -577 67 -62 69
-64 100 -52 307 118 683 195 1134 232 512 42 1245 -55 1669 -219 l70 -27 70
64 c278 257 775 530 1079 593 169 35 259 18 309 -58 99 -150 150 -547 126
-993 -22 -417 -78 -787 -156 -1022 l-25 -76 49 -109 c71 -155 135 -328 193
-520 27 -93 56 -186 64 -208 16 -48 68 -303 130 -635 53 -281 77 -377 139
-547 24 -67 47 -135 51 -152 6 -29 5 -31 -23 -31 -33 0 -140 33 -194 61 -75
38 -138 13 -138 -54 0 -37 29 -125 85 -260 56 -135 50 -144 -108 -146 -49 -1
-102 -7 -120 -15 -57 -24 -134 -93 -229 -208 -122 -146 -268 -276 -421 -376
-292 -190 -659 -318 -1456 -508 -196 -47 -360 -89 -365 -94 -5 -5 -6 -16 -2
-26 6 -15 19 -16 136 -11 256 13 646 75 883 141 l88 24 9 -21 c24 -63 226
-534 320 -747 160 -363 264 -584 468 -995 310 -623 407 -864 473 -1175 19 -86
23 -138 23 -290 1 -200 -8 -267 -55 -411 -51 -160 -132 -299 -271 -467 -38
-46 -94 -127 -125 -179 -76 -130 -95 -149 -178 -177 -130 -45 -456 -96 -607
-96 l-43 0 -1 54 c-2 69 -41 143 -107 201 l-49 42 46 129 c72 202 64 190 140
203 68 12 237 35 341 46 39 5 54 10 44 15 -29 17 -186 31 -302 28 -64 -2 -117
-1 -117 1 0 2 27 92 59 201 195 647 263 1060 247 1500 -8 205 -15 272 -32 277
-13 4 -19 -28 -59 -302 -64 -435 -149 -888 -222 -1180 -51 -205 -158 -536
-237 -735 l-53 -135 -76 -7 c-126 -12 -287 -62 -287 -90 0 -10 33 -13 142 -13
79 0 160 -4 180 -8 44 -9 137 -83 168 -132 20 -32 21 -39 9 -67 -38 -92 -247
-159 -449 -143 -152 12 -301 49 -368 93 -67 43 -115 246 -147 609 -22 252 -37
718 -29 890 4 107 3 153 -4 153 -18 0 -55 -163 -78 -350 -21 -170 -30 -719
-15 -876 15 -153 37 -279 60 -354 l19 -60 -225 0 -225 0 6 23 c58 199 70 313
63 597 -9 377 -57 666 -153 935 -60 166 -69 159 -54 -41 6 -82 20 -261 31
-399 45 -589 31 -884 -50 -1047 -23 -47 -34 -57 -91 -85 -119 -59 -214 -77
-395 -78 -183 0 -245 13 -317 68 -49 38 -68 69 -60 100 3 12 33 49 66 83 78
79 108 89 289 89 117 0 137 2 135 15 -4 23 -154 69 -269 83 l-100 12 -89 160
c-320 577 -521 1100 -600 1559 -64 375 -54 771 45 1851 60 643 57 617 72 611
7 -3 91 -21 186 -40 199 -40 504 -82 665 -92 109 -7 112 -6 112 14 0 11 -3 23
-7 25 -5 3 -123 30 -263 62 -914 202 -1358 371 -1699 646 -95 76 -246 226
-309 306 l-32 41 66 -44 c290 -189 735 -318 1318 -379 226 -23 603 -36 866
-28 226 6 235 7 257 29 18 18 23 34 23 73 0 63 26 198 43 224 9 13 46 27 123
47 60 15 134 40 163 55 l54 27 71 -35 c228 -114 486 -98 671 42 l51 38 29 -24
c143 -119 275 -63 336 142 30 100 36 213 15 270 -27 69 -105 125 -194 139 -24
4 -154 11 -289 16 -204 8 -249 12 -264 26 -25 23 -42 15 -80 -35 -19 -24 -51
-57 -71 -74 -106 -85 -269 -12 -312 141 -20 73 -21 68 12 75 43 9 152 79 180
116 91 117 -67 224 -308 208 -194 -12 -295 -109 -218 -208 29 -39 134 -104
191 -120 38 -10 39 -11 32 -47 -10 -55 -51 -128 -88 -156 -18 -14 -53 -30 -78
-37 -86 -23 -155 8 -223 99 -41 55 -65 64 -87 32 -15 -21 60 -18 -1319 -61
-220 -6 -381 -16 -424 -25 -98 -19 -178 -63 -366 -199 -91 -66 -184 -132 -207
-148 -43 -27 -61 -62 -49 -93 6 -15 4 -15 -16 0 -62 45 -111 59 -217 60 l-103
2 -10 -27 c-9 -25 -12 -27 -33 -17 -37 17 -49 58 -35 115 17 70 31 90 80 115
42 21 47 29 72 98 15 41 27 92 27 113 2 69 -60 98 -131 61 -51 -26 -169 -64
-201 -64 -27 0 -28 2 -22 31 4 17 27 85 51 152 66 182 79 234 160 660 113 593
196 883 357 1245 l50 114 -32 101 c-86 278 -139 672 -148 1103 -12 549 56 873
197 947 48 25 193 17 310 -16z m2614 -3913 c38 -14 10 -46 -57 -65 -35 -10
-110 6 -128 27 -15 19 3 41 39 47 31 6 123 0 146 -9z m-502 -544 c20 -16 47
-34 61 -39 l25 -10 4 -183 c4 -164 2 -186 -14 -210 -31 -47 -56 -122 -68 -206
l-12 -82 -325 0 c-637 0 -1083 58 -1498 195 -181 59 -445 186 -445 214 0 12
328 241 374 262 67 29 159 38 526 49 550 16 732 22 945 30 393 14 385 14 427
-20z m503 5 l30 -25 -104 0 -104 0 23 25 c33 35 112 35 155 0z m858 16 c115
-6 142 -11 165 -28 15 -11 28 -28 30 -37 3 -14 -1 -15 -24 -5 -38 14 -297 28
-518 29 l-179 0 23 25 c23 25 25 25 194 24 94 0 233 -4 309 -8z m3157 -1146
c488 -119 842 -449 1005 -937 156 -470 116 -1089 -111 -1708 -53 -143 -184
-402 -264 -522 -282 -420 -642 -731 -1115 -963 -254 -125 -440 -193 -720 -265
-235 -60 -216 -61 -158 12 119 149 191 279 252 451 l37 108 112 49 c519 225
920 543 1142 905 327 531 361 1313 80 1811 -30 52 -74 108 -131 165 -77 78
-84 88 -76 112 6 18 4 35 -7 56 -22 42 -20 58 10 88 l27 27 -29 23 c-16 13
-59 39 -96 58 -180 90 -392 68 -511 -53 -66 -67 -84 -117 -107 -293 -46 -347
-112 -502 -241 -574 -52 -29 -59 -30 -174 -30 -66 0 -132 3 -146 7 -28 8 -71
79 -108 178 -101 275 -3 670 238 957 146 174 403 314 647 353 87 13 367 4 444
-15z"/>
<path d="M1126 10635 c-125 -44 -176 -209 -176 -574 0 -297 43 -678 102 -895
33 -124 88 -165 150 -113 14 12 70 89 123 171 199 307 294 410 582 633 141
108 163 133 163 180 0 29 -10 46 -62 99 -184 192 -702 516 -820 514 -13 -1
-41 -7 -62 -15z"/>
<path d="M6284 10612 c-228 -110 -572 -347 -696 -480 -94 -101 -82 -129 124
-288 264 -205 403 -359 586 -648 86 -135 116 -166 162 -166 25 0 43 7 57 23
79 85 165 717 149 1102 -10 263 -46 392 -129 459 -33 26 -48 31 -105 33 -61 3
-75 0 -148 -35z"/>
<path d="M4727 9248 c-21 -5 -53 -25 -72 -43 -29 -26 -35 -40 -35 -72 0 -46
26 -85 71 -108 16 -9 83 -27 150 -40 141 -29 201 -56 357 -160 63 -41 117 -75
122 -75 4 0 13 7 20 15 10 12 9 25 -5 67 -46 145 -204 330 -331 390 -58 27
-82 32 -154 35 -47 1 -102 -3 -123 -9z"/>
<path d="M2715 9176 c-85 -21 -156 -65 -236 -145 -82 -83 -139 -169 -170 -257
-36 -102 -14 -107 103 -27 176 120 225 142 393 177 131 28 169 45 190 86 43
82 -8 146 -136 170 -63 12 -80 12 -144 -4z"/>
<path d="M2522 7859 c-146 -27 -274 -179 -334 -397 -18 -65 -22 -104 -22 -252
0 -200 14 -271 81 -405 160 -325 468 -332 633 -14 158 304 116 748 -91 964
-85 89 -170 122 -267 104z m-7 -353 c35 -35 42 -72 20 -112 -34 -63 -128 -65
-160 -4 -19 37 -19 54 1 91 27 53 99 65 139 25z m209 -289 c50 -38 70 -81 70
-148 1 -72 -33 -127 -96 -158 -80 -38 -158 -23 -215 42 -59 67 -63 156 -11
230 51 72 179 89 252 34z"/>
<path d="M4993 7859 c-107 -20 -200 -105 -268 -243 -76 -155 -106 -331 -87
-503 16 -135 35 -203 87 -309 163 -333 482 -329 639 8 66 141 81 215 81 398 0
118 -4 173 -19 230 -24 97 -93 243 -141 298 -83 95 -191 140 -292 121z m226
-324 c54 -27 64 -102 20 -144 -46 -43 -117 -33 -144 20 -19 36 -19 53 1 90 24
47 73 60 123 34z m-162 -296 c68 -25 115 -97 117 -174 2 -175 -218 -261 -333
-130 -28 32 -51 89 -51 125 0 64 57 151 115 176 37 16 114 18 152 3z"/>
</g>
</svg>
