<?xml version="1.0" standalone="no"?>
<!DOCTYPE svg PUBLIC "-//W3C//DTD SVG 20010904//EN"
 "http://www.w3.org/TR/2001/REC-SVG-20010904/DTD/svg10.dtd">
<svg version="1.0" xmlns="http://www.w3.org/2000/svg"
 width="1206.000000pt" height="1245.000000pt" viewBox="0 0 1206.000000 1245.000000"
 preserveAspectRatio="xMidYMid meet">

<g transform="translate(0.000000,1245.000000) scale(0.100000,-0.100000)"
fill="#000000" stroke="none">
<path d="M3205 11872 c-22 -10 -52 -22 -66 -25 -43 -11 -138 -122 -176 -205
-18 -41 -48 -135 -66 -211 l-32 -136 0 -525 c0 -384 3 -543 13 -592 7 -37 19
-125 27 -195 9 -70 24 -164 34 -208 10 -44 22 -98 25 -120 4 -22 21 -89 37
-150 l30 -110 -44 -95 c-25 -52 -55 -127 -68 -165 -12 -39 -31 -88 -41 -111
-10 -22 -18 -50 -18 -63 0 -12 -7 -32 -15 -44 -23 -35 -131 -418 -159 -562 -8
-44 -20 -96 -26 -115 -5 -19 -10 -60 -10 -90 0 -31 -4 -60 -8 -65 -13 -14 -45
-176 -86 -430 -15 -91 -64 -266 -92 -330 -21 -48 -74 -206 -85 -255 -14 -62 4
-121 47 -160 50 -43 98 -48 237 -24 46 8 47 -2 12 -82 -21 -48 -25 -71 -25
-161 0 -98 1 -105 25 -129 47 -47 110 -67 230 -72 133 -6 158 -19 241 -126
129 -167 373 -388 565 -512 166 -107 496 -258 657 -300 6 -2 12 -11 12 -21 0
-23 -149 -385 -296 -719 -46 -105 -84 -196 -84 -204 0 -7 -9 -27 -19 -44 -11
-17 -35 -67 -54 -111 -19 -44 -71 -156 -116 -249 -45 -92 -81 -170 -81 -172 0
-2 -81 -167 -179 -366 -211 -428 -312 -647 -376 -818 -55 -147 -105 -305 -105
-332 0 -10 -9 -44 -19 -76 -30 -89 -51 -278 -51 -464 0 -201 10 -194 -155
-114 -400 194 -699 418 -915 687 -176 220 -291 469 -356 774 -27 123 -28 144
-29 390 0 267 4 312 47 475 58 225 164 418 281 514 91 74 225 118 311 102 44
-8 98 -54 120 -101 25 -52 46 -156 56 -275 32 -399 242 -607 594 -588 131 7
202 42 311 150 70 71 90 99 135 190 101 209 123 432 66 678 -57 247 -170 465
-330 637 -187 201 -400 320 -706 395 -84 20 -474 18 -560 -4 -36 -9 -93 -24
-127 -32 -135 -34 -361 -142 -484 -232 -88 -65 -269 -244 -338 -334 -89 -117
-201 -308 -201 -342 0 -7 -11 -33 -24 -58 -13 -25 -34 -79 -46 -120 -12 -41
-31 -103 -41 -138 -10 -34 -19 -88 -19 -120 0 -32 -4 -62 -9 -68 -18 -18 -35
-210 -35 -394 0 -191 19 -428 35 -444 5 -6 9 -30 9 -55 0 -52 15 -126 70 -351
150 -605 458 -1128 897 -1525 360 -326 763 -556 1271 -725 181 -61 480 -139
610 -160 72 -12 75 -13 105 -58 84 -122 140 -161 297 -206 90 -25 330 -68 490
-86 60 -7 296 -11 645 -9 383 1 586 -2 670 -11 303 -32 603 12 759 110 l47 30
512 -1 c432 -1 526 1 600 15 162 30 278 110 333 230 49 108 50 277 2 374 -26
53 -100 114 -162 135 -22 7 -41 17 -43 23 -2 5 27 45 63 89 267 323 397 669
396 1055 0 272 -50 445 -188 658 -53 80 -54 85 -44 123 13 46 23 48 92 13 77
-39 220 -88 333 -115 88 -21 124 -24 295 -24 167 1 207 4 276 22 319 85 558
260 758 557 70 105 184 340 220 453 34 111 49 269 36 403 -12 126 -13 136 -47
273 l-27 108 42 122 c72 207 86 308 57 405 -29 97 -109 160 -215 169 -79 7
-125 -10 -192 -75 l-57 -54 -48 30 c-75 48 -117 62 -188 62 -120 0 -211 -71
-242 -188 -21 -81 -1 -209 53 -343 13 -32 24 -60 24 -62 0 -2 -53 -28 -117
-58 -115 -52 -120 -54 -209 -54 -85 0 -95 2 -168 39 -102 50 -217 159 -297
280 -65 99 -159 276 -159 300 0 10 19 21 58 32 267 77 631 267 857 449 100 80
255 236 338 338 39 49 91 103 116 120 41 29 52 31 109 29 35 -1 92 2 125 8
183 33 228 147 143 354 -20 49 -35 90 -33 92 2 3 35 -3 73 -12 90 -21 163 -12
205 24 34 28 59 77 59 116 0 29 -32 135 -98 327 -49 142 -62 200 -153 684 -99
525 -200 886 -348 1231 l-60 141 25 84 c32 108 78 332 99 479 37 264 46 358
56 600 25 583 -33 982 -173 1181 -35 50 -53 65 -117 97 -74 37 -76 37 -196 37
-98 0 -126 -3 -148 -17 -14 -10 -45 -18 -67 -18 -90 0 -480 -157 -563 -226
-16 -13 -35 -24 -43 -24 -16 0 -86 -40 -179 -100 -33 -22 -73 -48 -88 -57 -63
-40 -196 -140 -259 -195 l-66 -59 -109 36 c-247 82 -607 157 -843 175 -63 5
-176 16 -250 24 -227 25 -656 17 -725 -14 -11 -5 -85 -11 -165 -14 -80 -3
-163 -10 -185 -15 -22 -5 -86 -17 -142 -25 -57 -9 -116 -22 -132 -31 -17 -8
-47 -15 -68 -15 -58 0 -250 -51 -288 -77 -11 -7 -30 -13 -42 -13 -13 0 -43 -5
-67 -12 -44 -12 -45 -11 -88 25 -321 275 -814 544 -1151 628 -47 12 -130 22
-197 25 -98 4 -121 2 -155 -14z m322 -187 c334 -85 825 -362 1107 -626 l78
-73 47 18 c231 89 511 159 801 200 395 57 549 69 805 62 516 -13 1082 -112
1420 -250 l59 -24 71 65 c298 277 782 550 1134 639 116 30 239 32 291 6 132
-66 210 -400 210 -897 0 -465 -70 -1005 -171 -1321 l-29 -91 54 -114 c93 -197
214 -549 280 -814 21 -86 76 -361 172 -856 23 -119 56 -233 138 -467 20 -57
36 -105 36 -108 0 -19 -140 18 -232 61 -65 30 -97 31 -132 4 -21 -16 -26 -29
-26 -63 0 -52 8 -75 76 -237 30 -69 54 -138 54 -152 0 -35 -40 -47 -152 -47
-142 0 -207 -39 -353 -214 -108 -130 -236 -255 -355 -347 -377 -293 -842 -455
-1974 -692 -116 -24 -142 -40 -120 -74 10 -15 25 -18 99 -16 191 5 626 72 894
139 97 24 175 42 176 41 0 -1 26 -54 58 -118 87 -174 168 -291 282 -405 82
-82 115 -108 183 -142 46 -23 98 -44 117 -48 19 -3 35 -8 35 -11 0 -2 -21 -30
-47 -61 -58 -71 -98 -159 -114 -248 -15 -89 3 -319 36 -448 73 -288 248 -436
516 -436 94 0 211 18 296 45 l73 23 -20 -28 c-21 -29 -127 -118 -200 -167
-308 -207 -739 -217 -1139 -26 l-93 44 6 37 c54 308 90 624 102 878 7 151 7
152 -16 164 -40 21 -52 -5 -67 -147 -90 -879 -346 -1739 -801 -2693 -197 -413
-366 -646 -576 -792 l-80 -55 -36 46 c-21 25 -63 62 -94 81 l-57 35 5 315 c11
609 57 1209 123 1610 26 158 34 315 20 382 -23 108 -108 4 -152 -186 -8 -34
-30 -200 -49 -371 -59 -523 -85 -904 -94 -1395 l-7 -335 -30 -3 c-67 -5 -154
-24 -230 -50 l-80 -27 140 -6 c158 -8 191 -15 276 -65 89 -53 129 -91 129
-124 0 -64 -96 -130 -252 -172 -75 -21 -105 -23 -303 -23 -231 0 -322 12 -442
57 -50 18 -52 21 -72 81 -38 116 -93 369 -136 625 l-16 93 55 83 c62 92 153
277 186 376 90 270 105 584 39 837 -26 99 -93 241 -158 335 -56 82 -170 201
-248 260 -60 46 -59 43 -68 228 -9 188 -13 212 -39 208 -25 -4 -49 -81 -67
-218 -7 -47 -13 -86 -15 -88 -1 -2 -26 9 -55 24 -123 62 -189 71 -189 25 0
-21 19 -38 81 -74 78 -45 210 -147 292 -226 253 -244 362 -521 344 -867 -19
-355 -173 -698 -436 -976 l-86 -90 -57 11 c-225 41 -503 10 -695 -79 -46 -21
-83 -42 -83 -45 0 -4 8 -4 18 0 108 45 337 70 506 55 208 -18 342 -58 407
-120 43 -41 63 -112 63 -220 -1 -180 -132 -252 -459 -252 -83 0 -198 6 -255
13 -58 7 -128 12 -157 11 -57 -2 -254 44 -326 76 -51 23 -82 60 -153 187 -25
45 -80 123 -121 171 -187 224 -301 454 -344 694 -18 97 -18 392 -1 490 62 349
169 623 497 1281 314 627 490 1008 745 1609 153 362 148 350 156 350 4 0 86
-20 183 -44 211 -53 467 -97 729 -126 215 -24 260 -23 276 3 18 29 -5 50 -70
64 -702 151 -1000 227 -1335 342 -424 145 -780 384 -1029 691 -93 114 -163
180 -228 212 -40 19 -60 23 -132 21 -47 -1 -102 2 -124 8 -37 10 -38 12 -33
44 3 19 28 86 56 150 85 194 93 253 43 299 -28 24 -72 18 -187 -27 -49 -19
-107 -38 -127 -41 -34 -6 -38 -5 -38 13 0 11 20 76 45 144 62 171 99 296 118
397 9 47 37 193 62 325 97 510 118 595 228 920 69 205 122 341 184 475 l40 86
-19 54 c-116 339 -186 913 -175 1443 10 517 85 780 232 816 55 14 160 4 272
-24z m-1237 -5975 c530 -56 919 -419 1031 -962 38 -187 15 -397 -60 -546 -54
-107 -51 -105 -192 -110 -142 -5 -186 4 -255 51 -122 82 -204 302 -239 642
-15 146 -34 194 -107 271 -126 133 -353 157 -556 58 -114 -57 -214 -160 -276
-284 -50 -104 -115 -316 -121 -395 -1 -27 -15 -84 -29 -125 -66 -184 -96 -379
-96 -625 0 -257 28 -441 102 -674 99 -311 261 -568 508 -804 235 -225 544
-424 895 -577 66 -29 124 -56 128 -60 5 -4 22 -48 39 -96 58 -174 158 -355
278 -502 28 -35 50 -65 48 -67 -6 -6 -385 94 -493 130 -1039 348 -1716 991
-2025 1925 -123 370 -180 702 -180 1047 0 367 65 656 210 932 70 132 149 239
265 355 306 309 713 459 1125 416z m7463 -263 c44 -19 57 -37 63 -93 6 -49
-30 -234 -44 -234 -4 0 -20 24 -36 53 -16 28 -51 82 -78 119 -26 37 -48 71
-48 74 0 15 53 76 74 84 29 12 32 12 69 -3z m-425 -53 c219 -109 413 -485 452
-875 38 -383 -144 -690 -478 -806 -70 -25 -90 -27 -232 -28 -178 0 -203 8
-277 88 -87 94 -123 207 -142 447 -11 132 -3 191 36 267 30 61 128 161 205
211 79 51 222 117 318 148 47 15 88 29 92 33 4 3 -11 34 -32 69 -85 141 -135
322 -112 401 22 72 83 88 170 45z m-1412 -2523 c59 -129 76 -214 81 -403 8
-258 -24 -416 -127 -635 -80 -170 -178 -311 -314 -450 -54 -56 -79 -74 -106
-79 -91 -14 -140 -29 -202 -61 -38 -20 -68 -39 -68 -44 0 -15 18 -19 45 -9
175 67 497 -5 546 -122 18 -41 18 -138 0 -200 -15 -54 -68 -121 -115 -145 -75
-39 -130 -44 -586 -53 -245 -5 -446 -7 -447 -6 -1 1 39 31 90 66 270 189 467
479 740 1090 167 375 266 650 404 1124 5 20 6 20 20 0 9 -10 26 -43 39 -73z
m-2845 -1768 c22 -116 23 -144 2 -85 -8 24 -33 62 -54 85 l-39 41 32 33 c17
18 33 31 36 29 2 -3 12 -49 23 -103z m26 -155 c-3 -8 -6 -5 -6 6 -1 11 2 17 5
13 3 -3 4 -12 1 -19z m102 -386 c6 -12 11 -23 11 -26 0 -3 -46 -6 -102 -6
l-102 0 26 28 c57 60 94 184 83 274 -3 23 13 -23 34 -104 22 -80 44 -155 50
-166z"/>
<path d="M3382 11479 c-127 -64 -169 -254 -159 -708 9 -418 85 -903 153 -976
28 -30 78 -33 111 -7 11 9 69 91 128 182 214 329 332 457 627 682 205 156 218
187 121 290 -145 152 -483 386 -731 506 -117 57 -184 65 -250 31z m197 -159
c193 -94 482 -286 627 -419 l59 -54 -50 -44 c-28 -24 -93 -76 -145 -116 -112
-84 -295 -259 -336 -319 -16 -24 -56 -77 -90 -118 -33 -41 -71 -94 -85 -116
-46 -79 -91 -144 -99 -144 -25 0 -83 404 -101 702 -24 382 26 668 116 668 11
0 58 -18 104 -40z"/>
<path d="M9075 11492 c-134 -16 -662 -357 -845 -545 -67 -70 -73 -81 -65 -117
8 -34 57 -81 235 -220 158 -123 312 -272 398 -386 33 -45 112 -160 175 -255
110 -168 138 -199 183 -199 63 0 117 182 164 550 66 527 42 973 -61 1104 -37
47 -115 76 -184 68z m72 -147 c62 -43 90 -312 72 -684 -10 -216 -18 -293 -55
-521 -18 -116 -30 -154 -43 -146 -5 3 -44 59 -86 123 -181 275 -314 416 -607
641 -57 44 -98 83 -98 93 0 38 335 281 564 409 181 101 214 112 253 85z"/>
<path d="M4954 8722 c-149 -53 -264 -164 -349 -337 -66 -132 -94 -241 -102
-390 -16 -305 111 -577 316 -678 62 -30 72 -32 176 -32 105 0 113 2 180 34 93
45 216 167 274 271 48 88 94 224 111 333 16 97 8 288 -16 377 -49 187 -156
335 -293 402 -55 28 -76 33 -155 35 -69 3 -103 -1 -142 -15z m344 -346 c15 -8
38 -34 52 -58 22 -39 25 -54 25 -153 0 -94 -3 -117 -24 -162 -29 -66 -90 -123
-130 -123 -76 0 -127 94 -125 230 2 127 51 236 117 265 41 18 52 18 85 1z
m-502 -414 c33 -22 45 -111 23 -169 -25 -68 -83 -94 -113 -51 -19 27 -22 128
-5 161 28 55 66 78 95 59z"/>
<path d="M7433 8721 c-154 -56 -278 -213 -335 -423 -32 -121 -32 -336 1 -462
71 -274 219 -464 418 -536 53 -19 77 -22 155 -18 79 4 102 9 153 35 82 43 136
91 188 171 95 145 132 293 124 501 -6 166 -28 256 -98 398 -82 166 -206 285
-347 332 -79 27 -187 27 -259 2z m8 -353 c54 -36 99 -137 106 -235 7 -106 -13
-179 -64 -223 -49 -44 -93 -38 -145 20 -125 140 -89 454 53 459 9 1 31 -9 50
-21z m473 -423 c48 -51 58 -164 20 -206 -54 -59 -134 38 -121 148 8 78 57 106
101 58z"/>
<path d="M6164 7566 c-163 -37 -226 -124 -158 -214 32 -41 132 -108 187 -124
37 -11 38 -13 32 -47 -28 -155 -158 -255 -284 -221 -41 11 -107 67 -168 143
-18 23 -26 26 -42 18 -10 -6 -21 -17 -24 -24 -8 -20 37 -113 78 -163 121 -147
362 -120 477 54 l15 22 28 -40 c57 -82 152 -130 258 -130 110 0 205 64 261
176 31 63 33 90 5 104 -18 10 -25 7 -52 -26 -69 -79 -107 -112 -152 -129 -94
-36 -210 17 -260 120 -15 31 -28 72 -29 91 -1 33 1 36 50 52 28 10 74 33 102
51 120 77 146 152 74 220 -23 22 -60 43 -96 54 -77 25 -224 31 -302 13z m211
-80 c19 -8 35 -20 35 -26 0 -16 -79 -50 -117 -50 -49 0 -113 29 -113 51 0 35
130 52 195 25z"/>
<path d="M10605 6641 c-87 -22 -165 -63 -165 -87 0 -6 -20 -27 -45 -47 -44
-37 -85 -107 -85 -146 0 -11 -5 -23 -11 -27 -14 -8 -6 -238 9 -257 5 -7 25
-41 44 -77 36 -67 136 -234 209 -350 23 -36 64 -103 92 -150 68 -116 89 -137
154 -151 57 -13 121 -1 145 29 7 8 21 18 33 24 37 18 113 63 167 99 96 65 151
99 163 99 6 0 22 11 35 25 13 14 31 25 39 25 25 0 191 116 225 158 75 90 100
163 100 297 0 80 -3 97 -31 155 -75 160 -202 239 -388 242 -78 1 -99 -2 -153
-25 -37 -16 -68 -24 -76 -20 -7 4 -36 33 -64 63 -101 111 -249 156 -397 121z
m220 -130 c54 -27 130 -81 114 -81 -4 0 -33 12 -65 27 -79 37 -203 39 -278 5
-71 -32 -132 -86 -166 -145 -39 -68 -40 -33 -1 48 33 70 101 136 164 159 23 8
71 15 107 15 53 1 76 -5 125 -28z m587 -133 c40 -14 133 -76 126 -84 -3 -2
-27 6 -54 18 -60 26 -175 35 -241 19 -26 -7 -73 -25 -104 -41 l-56 -28 -13 24
c-8 13 -11 25 -9 27 31 22 125 64 164 74 55 14 132 10 187 -9z"/>
</g>
</svg>
