<?xml version="1.0" standalone="no"?>
<!DOCTYPE svg PUBLIC "-//W3C//DTD SVG 20010904//EN"
 "http://www.w3.org/TR/2001/REC-SVG-20010904/DTD/svg10.dtd">
<svg version="1.0" xmlns="http://www.w3.org/2000/svg"
 width="368.000000pt" height="420.000000pt" viewBox="0 0 368.000000 420.000000"
 preserveAspectRatio="xMidYMid meet">

<g transform="translate(0.000000,420.000000) scale(0.100000,-0.100000)"
fill="#000000" stroke="none">
<path d="M1053 4141 c-66 -42 -110 -140 -139 -311 -21 -126 -15 -470 10 -589
15 -73 15 -76 -9 -144 -35 -96 -73 -293 -81 -416 l-7 -103 -42 -18 c-32 -14
-58 -17 -102 -13 -66 6 -174 -9 -243 -34 -265 -96 -406 -352 -272 -493 68 -71
138 -72 305 -5 102 41 162 51 225 35 96 -22 167 -113 178 -227 6 -59 -19 -212
-49 -298 -13 -38 -16 -40 -67 -47 -64 -8 -99 -31 -124 -84 -16 -34 -26 -43
-61 -52 -106 -28 -151 -170 -79 -247 20 -22 23 -30 12 -36 -7 -5 -18 -9 -24
-9 -24 0 -64 -42 -70 -74 -12 -66 46 -126 121 -126 22 0 24 -3 15 -19 -19 -36
-12 -90 15 -116 31 -32 109 -34 175 -4 l45 20 15 -23 c45 -68 103 -138 132
-158 22 -15 45 -48 70 -99 98 -205 353 -351 681 -390 45 -6 219 -9 387 -7 284
4 312 6 411 29 302 72 492 210 569 414 18 48 21 73 18 148 -3 60 -10 101 -22
123 -10 19 -16 35 -14 37 2 2 30 8 63 13 l59 10 50 -48 c28 -26 70 -57 93 -69
56 -28 131 -28 166 -1 34 27 45 81 23 115 -16 24 -16 25 9 25 38 0 90 25 109
51 26 37 21 91 -11 121 -16 15 -41 30 -56 34 -28 6 -28 7 -9 28 32 34 42 62
42 111 0 80 -47 140 -122 151 -23 4 -38 12 -38 21 0 58 -77 113 -157 113 -59
0 -102 -24 -133 -75 l-23 -37 -148 3 c-173 5 -174 5 -235 123 -52 99 -90 152
-147 207 l-50 47 44 12 c183 46 331 120 461 232 46 39 68 51 110 58 29 4 65
14 79 20 57 26 68 100 26 181 l-26 49 30 20 c63 46 100 158 67 203 -7 9 -34
25 -59 36 l-46 19 -6 108 c-7 123 -36 277 -73 396 l-26 81 18 111 c25 153 25
465 0 589 -29 151 -71 237 -133 279 -39 25 -170 25 -244 -1 -106 -36 -253
-120 -380 -216 l-57 -43 -68 16 c-91 20 -343 20 -434 -1 l-65 -15 -65 48
c-106 79 -235 156 -318 191 -65 27 -92 33 -172 36 -82 4 -99 1 -127 -16z m224
-46 c43 -13 119 -48 168 -76 97 -56 215 -137 215 -147 0 -4 -27 -18 -60 -30
l-60 -24 -51 45 c-99 87 -266 167 -348 167 -75 0 -113 -78 -131 -273 -11 -111
-2 -261 20 -338 9 -31 6 -42 -22 -95 l-32 -59 -10 40 c-5 22 -10 139 -10 260
-1 177 3 236 17 303 19 89 57 184 85 215 39 44 107 48 219 12z m1673 10 c105
-54 165 -391 129 -727 -6 -57 -14 -106 -18 -110 -4 -4 -22 20 -40 53 -32 59
-33 62 -20 107 10 32 14 106 14 232 0 164 -3 193 -23 257 -28 91 -57 118 -120
109 -93 -13 -237 -86 -327 -168 l-52 -48 -62 28 c-33 15 -61 30 -61 33 0 10
163 119 240 162 137 76 276 105 340 72z m-1653 -185 c54 -27 120 -68 146 -91
l48 -41 -33 -24 c-17 -13 -29 -24 -25 -24 4 0 60 17 125 39 176 58 279 75 472
75 209 0 262 -10 555 -109 15 -5 12 -1 -9 17 l-28 24 52 47 c63 57 201 127
263 134 39 5 47 2 60 -18 29 -47 42 -132 42 -284 0 -82 -4 -167 -8 -189 l-8
-39 -39 38 -39 38 69 -135 c116 -224 184 -464 196 -685 7 -139 15 -158 70
-179 25 -9 48 -24 53 -32 21 -37 -38 -127 -100 -153 -16 -6 -29 -13 -29 -15 0
-2 16 -24 35 -49 19 -25 37 -62 41 -82 9 -48 -15 -68 -91 -78 -48 -6 -64 -14
-108 -52 -187 -167 -384 -256 -702 -319 l-70 -13 105 4 105 5 52 -35 c57 -38
119 -119 177 -231 20 -39 50 -83 65 -98 34 -32 105 -46 244 -46 63 0 96 -4 92
-10 -3 -5 -3 -10 2 -10 4 0 19 16 32 35 44 64 87 95 134 95 52 0 104 -30 113
-65 9 -38 -12 -58 -56 -51 -49 8 -80 -15 -80 -57 1 -55 49 -97 112 -97 46 0
58 15 58 71 0 58 17 76 62 63 40 -12 68 -50 70 -96 2 -50 -23 -83 -77 -103
-44 -17 -46 -17 -60 1 -14 17 -14 16 -9 -21 8 -54 -9 -114 -46 -160 -36 -45
-37 -49 -9 -35 17 10 27 6 64 -27 44 -38 63 -73 50 -92 -3 -6 -25 -11 -49 -11
-45 0 -81 20 -177 98 -29 24 -73 54 -98 67 -53 27 -94 67 -112 110 l-13 30 -4
-33 c-4 -38 30 -104 65 -127 33 -22 28 -35 -13 -35 -24 0 -46 8 -66 25 -44 38
-96 61 -150 69 -42 6 -49 11 -53 34 -23 110 -51 182 -152 383 -62 124 -120
232 -128 239 -23 19 66 -233 122 -345 53 -105 86 -199 97 -275 l6 -45 -51 -28
c-59 -33 -61 -42 -4 -22 57 20 161 18 210 -4 121 -55 182 -205 140 -347 -63
-218 -293 -374 -635 -429 -115 -18 -256 -20 -225 -3 36 20 76 62 97 102 17 34
20 54 16 130 -5 97 -20 140 -64 181 l-25 23 48 23 c26 13 94 58 149 100 56 42
132 98 170 123 38 25 63 46 55 46 -27 0 -180 -78 -267 -137 -157 -106 -176
-113 -306 -113 -132 0 -159 10 -308 110 -93 62 -242 140 -269 140 -8 0 23 -26
70 -58 46 -32 123 -87 170 -123 131 -100 183 -122 299 -123 74 -1 104 -5 134
-21 22 -11 40 -24 40 -29 1 -6 -21 -15 -49 -21 l-50 -12 68 -7 c75 -9 87 -20
87 -79 0 -32 -4 -36 -47 -55 -27 -11 -57 -22 -68 -25 -11 -4 10 -5 48 -4 77 3
83 -6 44 -64 -137 -204 -780 -132 -1031 116 -44 43 -75 86 -102 140 -36 73
-39 85 -38 160 1 51 7 93 18 118 23 53 84 117 131 138 49 22 153 24 210 4 55
-20 55 -12 0 21 l-47 27 5 57 c8 70 47 184 93 266 40 72 139 351 119 334 -8
-6 -64 -111 -125 -232 -101 -200 -150 -327 -150 -384 0 -19 -7 -23 -52 -29
-59 -8 -110 -31 -156 -70 -30 -25 -85 -34 -96 -16 -3 5 6 16 20 25 37 25 64
75 63 121 l0 40 -21 -44 c-16 -32 -38 -54 -81 -82 -33 -22 -63 -39 -68 -39 -4
0 -42 -29 -85 -65 -76 -63 -115 -81 -164 -73 -13 1 -28 11 -34 21 -9 15 -3 25
42 67 45 41 57 48 73 40 23 -13 25 2 3 21 -32 27 -54 87 -54 151 -1 57 -2 61
-15 44 -14 -18 -16 -18 -60 -2 -25 10 -52 27 -60 39 -32 46 -10 132 40 155 56
25 86 4 78 -56 -7 -55 16 -76 75 -69 52 6 89 37 97 82 10 48 -12 68 -76 69
-44 1 -54 4 -57 19 -11 53 36 97 103 97 51 0 84 -20 129 -80 22 -28 42 -47 45
-42 3 5 65 11 137 14 181 6 190 11 269 153 69 123 139 206 196 235 32 17 52
19 136 15 l98 -5 -114 24 c-288 62 -458 140 -634 289 -69 58 -83 66 -132 72
-76 10 -100 30 -91 78 4 20 23 57 42 83 19 25 34 47 32 48 -92 56 -128 98
-128 149 0 23 7 31 55 51 62 28 61 25 70 176 12 216 81 456 192 672 84 165 83
160 39 119 -19 -19 -38 -32 -41 -30 -2 3 -10 41 -16 85 -18 126 1 336 37 407
23 43 72 37 191 -23z m-587 -1456 c0 -49 26 -99 69 -136 l37 -30 -28 -56 c-58
-115 -21 -180 113 -198 45 -6 63 -16 114 -58 33 -28 84 -66 113 -85 l53 -34
-6 -51 c-14 -117 -37 -218 -73 -326 -38 -114 -39 -115 -72 -118 -61 -6 -93 7
-132 52 l-37 43 31 114 c65 246 28 415 -108 495 -38 22 -63 29 -128 32 -76 4
-88 2 -191 -37 -178 -68 -228 -65 -275 12 -74 121 65 318 273 386 77 25 96 28
180 30 l67 1 0 -36z m577 -645 c26 -11 86 -32 132 -45 47 -13 86 -26 88 -27 1
-2 -26 -32 -60 -68 -40 -43 -81 -102 -117 -169 -30 -56 -64 -108 -75 -116 -23
-15 -135 -31 -135 -19 0 5 15 56 34 114 37 114 66 242 66 290 0 28 8 61 15 61
2 0 25 -9 52 -21z m-537 -572 c0 -19 -21 -37 -43 -37 -13 0 -17 5 -13 16 3 9
6 20 6 25 0 5 11 9 25 9 14 0 25 -6 25 -13z m2588 -14 c4 -28 -22 -31 -50 -6
-27 24 -22 35 15 31 24 -2 33 -8 35 -25z m-2715 -240 c3 -16 9 -36 12 -46 16
-39 -118 -61 -160 -27 -19 16 -19 54 -1 69 20 17 64 29 107 30 32 1 37 -2 42
-26z m2927 7 c28 -15 26 -64 -2 -84 -43 -30 -156 -8 -150 29 14 83 9 78 74 71
32 -3 68 -10 78 -16z m-2582 -186 l31 -6 -19 -47 c-10 -26 -21 -73 -25 -106
l-8 -59 -37 44 c-21 24 -48 63 -61 87 l-23 42 24 26 c24 26 57 31 118 19z"/>
<path d="M1540 3313 c-42 -15 -143 -143 -127 -160 6 -6 150 15 193 28 30 9 54
43 54 75 0 8 -11 26 -25 39 -23 24 -60 31 -95 18z"/>
<path d="M2422 3310 c-45 -19 -54 -97 -14 -119 15 -8 191 -41 217 -41 11 0
-27 63 -62 101 -37 41 -81 70 -105 68 -7 0 -23 -4 -36 -9z"/>
<path d="M1747 2704 c-31 -89 -69 -138 -131 -169 -48 -23 -65 -27 -111 -22
-71 7 -150 50 -189 104 -17 23 -34 42 -37 43 -10 0 5 -60 24 -96 83 -159 318
-185 424 -46 40 53 60 135 47 194 l-10 43 -17 -51z"/>
<path d="M2255 2710 c-17 -99 39 -213 126 -258 101 -51 250 -19 320 69 28 35
65 126 55 136 -2 2 -19 -16 -38 -40 -20 -23 -58 -55 -86 -70 -97 -53 -191 -45
-264 21 -40 36 -88 120 -88 154 0 35 -18 27 -25 -12z"/>
<path d="M1942 2530 c-42 -10 -46 -14 -38 -44 8 -32 57 -67 104 -73 30 -4 45
1 80 26 56 42 58 76 5 90 -43 12 -103 13 -151 1z"/>
<path d="M1960 2320 c-11 -11 -20 -23 -20 -27 0 -5 34 -8 75 -8 41 0 75 3 75
8 0 20 -43 47 -75 47 -22 0 -43 -8 -55 -20z"/>
<path d="M1900 405 c0 -38 -3 -88 -6 -110 l-5 -40 20 23 c37 42 40 133 6 178
-13 17 -14 12 -15 -51z"/>
</g>
</svg>
