<?xml version="1.0" standalone="no"?>
<!DOCTYPE svg PUBLIC "-//W3C//DTD SVG 20010904//EN"
 "http://www.w3.org/TR/2001/REC-SVG-20010904/DTD/svg10.dtd">
<svg version="1.0" xmlns="http://www.w3.org/2000/svg"
 width="736.000000pt" height="656.000000pt" viewBox="0 0 736.000000 656.000000"
 preserveAspectRatio="xMidYMid meet">

<g transform="translate(0.000000,656.000000) scale(0.100000,-0.100000)"
fill="#000000" stroke="none">
<path d="M5379 6485 c-108 -40 -309 -165 -506 -317 -34 -27 -67 -48 -75 -48
-7 0 -38 9 -68 21 -79 30 -279 76 -394 90 -269 33 -634 -53 -889 -209 -37 -23
-74 -42 -81 -42 -8 0 -50 19 -93 42 -272 147 -537 239 -644 222 -104 -17 -179
-153 -179 -327 0 -148 76 -452 174 -700 l54 -138 -24 -97 c-52 -207 -67 -311
-100 -701 -8 -102 -26 -232 -40 -292 -14 -62 -22 -120 -18 -135 11 -42 45 -57
110 -49 53 6 56 5 49 -12 -4 -10 -10 -43 -12 -74 -5 -52 -3 -57 26 -81 24 -21
46 -28 98 -32 90 -8 148 -38 274 -143 57 -47 123 -96 147 -110 24 -14 40 -29
35 -32 -4 -4 -138 -4 -298 -1 -437 10 -931 -8 -1180 -41 -558 -76 -975 -208
-1347 -428 -136 -80 -213 -178 -275 -348 -32 -88 -37 -111 -41 -224 -4 -123
-4 -127 19 -143 31 -22 71 -20 120 4 22 12 81 35 132 52 122 40 302 51 392 23
78 -25 151 -93 200 -187 81 -156 151 -228 255 -264 70 -24 190 -37 295 -30
130 8 252 -7 320 -38 37 -17 92 -61 178 -144 176 -169 263 -208 492 -219 133
-6 313 10 357 33 16 8 63 67 115 144 48 72 92 130 98 129 5 0 39 -15 75 -32
63 -31 65 -34 72 -77 7 -44 17 -121 59 -453 12 -95 19 -200 17 -264 l-3 -107
-68 -34 c-83 -42 -174 -123 -198 -177 -22 -48 -24 -133 -5 -179 23 -56 72
-101 144 -135 197 -90 485 -79 696 26 60 30 142 106 166 153 56 111 121 420
155 741 l6 55 178 0 178 -1 0 -280 c-1 -255 1 -289 21 -384 33 -151 64 -204
154 -263 119 -79 269 -113 468 -106 113 4 148 9 215 32 152 52 217 124 218
241 1 113 -71 213 -199 276 -39 19 -64 38 -64 48 0 23 43 210 110 476 65 259
95 394 105 476 l6 56 56 12 c191 38 293 196 293 452 -1 267 -132 586 -415
1009 -62 92 -115 178 -118 192 -4 14 -25 42 -47 62 -22 20 -40 39 -40 43 1 5
40 32 87 62 104 66 248 201 303 284 51 75 98 106 163 107 125 1 167 67 112
176 -14 27 -25 49 -25 50 0 0 25 0 56 0 47 -1 59 3 75 23 29 35 24 64 -31 183
-28 61 -59 140 -69 176 -58 208 -137 451 -174 537 -12 28 -49 104 -82 170 -56
109 -61 124 -54 160 104 547 77 909 -76 1044 -32 28 -42 31 -98 30 -34 0 -78
-6 -98 -14z m148 -77 c30 -33 61 -98 81 -171 24 -89 23 -416 -2 -582 -26 -171
-23 -167 -79 -91 l-48 65 30 98 c40 129 53 245 41 350 -24 215 -61 241 -221
160 -98 -50 -192 -111 -265 -173 l-50 -42 -57 26 c-31 14 -57 30 -57 34 0 5
48 44 107 87 212 156 399 260 469 261 19 0 38 -8 51 -22z m-2752 -257 c109
-28 245 -85 430 -180 l170 -88 65 44 c143 97 367 186 550 219 316 57 709 -28
1015 -219 266 -165 484 -405 644 -707 28 -52 51 -98 51 -101 0 -3 -93 -9 -207
-12 -187 -6 -515 -30 -553 -42 -8 -2 -105 -16 -215 -30 -675 -86 -1423 -246
-1934 -414 -68 -23 -126 -39 -129 -36 -9 8 29 228 60 345 16 63 32 125 35 137
3 13 -10 57 -31 107 -128 298 -205 611 -193 784 7 99 21 143 56 181 35 37 79
40 186 12z m2982 -1206 c13 -38 51 -160 85 -270 33 -110 80 -247 105 -304 24
-57 42 -106 39 -108 -2 -2 -36 4 -74 13 -58 14 -74 15 -87 4 -25 -21 -17 -64
25 -145 23 -41 38 -80 35 -85 -3 -6 -26 -10 -51 -10 -25 0 -67 -9 -94 -21 -44
-19 -54 -20 -107 -9 -176 37 -363 129 -616 304 -245 170 -337 208 -454 187
-117 -22 -189 -83 -327 -275 -105 -147 -216 -276 -303 -352 -191 -167 -415
-280 -633 -318 -70 -12 -77 -12 -110 7 -64 37 -192 131 -270 200 -69 59 -82
67 -119 67 l-41 0 6 40 c5 31 3 45 -11 60 -24 26 -35 25 -105 -10 -33 -16 -61
-30 -63 -30 -3 0 6 48 18 108 23 105 45 320 45 432 l0 56 193 62 c105 34 242
75 302 91 775 212 1862 381 2419 377 l169 -1 24 -70z m-1008 -566 c36 -16 108
-60 160 -98 305 -217 429 -280 729 -367 21 -6 -35 -79 -130 -170 -98 -94 -228
-182 -385 -262 -80 -40 -113 -62 -113 -75 0 -29 22 -29 83 -2 31 13 57 23 57
20 0 -13 -216 -122 -343 -174 l-148 -59 -377 -7 c-445 -9 -663 3 -865 46 -27
6 -45 15 -40 19 4 5 42 0 83 -11 41 -11 112 -22 157 -26 71 -5 83 -4 83 10 0
11 -20 20 -72 32 -116 26 -216 63 -321 117 -128 67 -132 74 -60 82 139 17 354
91 483 166 228 134 399 300 607 590 83 116 140 168 205 191 67 24 120 18 207
-22z m-1569 -1148 c0 -31 -30 -34 -313 -27 -944 23 -1636 -87 -2194 -349 -306
-144 -409 -240 -483 -448 -26 -72 -25 -35 1 44 27 84 82 187 126 238 79 93
457 278 743 364 295 89 646 150 1015 176 163 11 1105 13 1105 2z m2152 -96
c48 -129 97 -309 123 -452 14 -74 25 -140 25 -147 0 -7 -17 -18 -38 -24 -160
-48 -248 -267 -196 -492 28 -126 112 -201 206 -185 l41 7 -7 -77 c-11 -123
-43 -287 -91 -465 -36 -133 -135 -554 -135 -573 0 -2 -33 -6 -72 -9 -47 -3
-91 -13 -123 -28 l-50 -23 95 -9 c127 -10 185 -23 256 -57 106 -50 174 -146
161 -228 -7 -42 -43 -87 -51 -62 -19 64 -41 110 -66 139 l-29 35 19 -53 c41
-110 17 -190 -63 -211 -68 -17 -67 -17 -67 57 0 71 -29 152 -65 182 -17 14
-17 14 0 -20 25 -48 26 -143 1 -198 l-19 -42 -79 0 c-164 0 -335 57 -407 135
-65 70 -88 175 -98 430 -5 135 8 390 21 402 2 2 44 15 93 28 97 26 196 66 207
84 10 16 -2 48 -20 55 -9 3 -61 -9 -117 -28 -157 -53 -253 -70 -407 -70 -76
-1 -165 5 -203 13 -37 7 -70 11 -73 8 -3 -3 -12 -66 -20 -139 -33 -322 -98
-637 -149 -724 -14 -23 -39 -54 -57 -69 -79 -67 -237 -117 -377 -119 -74 -1
-76 -1 -90 29 -22 46 -26 124 -7 169 22 52 15 55 -17 8 -31 -47 -47 -102 -47
-161 l0 -43 -36 7 c-61 11 -84 24 -95 52 -16 42 -5 116 25 175 l27 53 -35 -35
c-41 -39 -86 -122 -86 -157 0 -20 -3 -22 -19 -14 -49 27 -67 138 -31 196 46
74 168 139 321 169 60 12 111 25 114 28 10 10 -54 31 -113 37 l-57 6 3 35 c5
60 -17 328 -42 505 -13 94 -27 195 -31 226 l-6 56 83 6 c46 3 112 15 148 27
36 11 110 27 165 36 55 8 118 23 141 33 80 36 133 146 141 297 7 108 -7 174
-48 239 -52 82 -185 122 -299 91 -49 -13 -58 -13 -78 0 -55 36 -79 169 -51
280 13 52 7 64 -20 40 -39 -35 -66 -116 -65 -196 0 -80 15 -122 61 -172 l25
-26 -26 -35 c-31 -41 -68 -140 -64 -171 2 -17 12 -8 50 46 79 110 157 159 253
159 54 0 117 -20 130 -41 6 -9 0 -10 -22 -6 -37 9 -111 -7 -131 -28 -15 -14
-13 -15 18 -6 41 12 79 6 137 -22 42 -21 53 -39 53 -94 l0 -31 -53 5 c-28 2
-72 -2 -97 -9 l-45 -13 67 -6 c78 -8 118 -30 118 -66 0 -36 -48 -132 -75 -150
-12 -8 -74 -23 -136 -34 -63 -11 -143 -29 -177 -40 -172 -54 -363 3 -518 156
-56 55 -81 89 -112 155 -22 46 -45 108 -51 137 -15 75 -14 218 4 301 39 185
164 412 328 595 l52 59 50 -25 c67 -34 165 -65 277 -90 181 -39 583 -36 826 6
l73 12 -8 -40 c-4 -23 -8 -75 -8 -117 0 -126 44 -150 151 -81 65 42 104 84
135 144 l20 40 35 -41 c40 -46 155 -107 220 -117 35 -5 46 -2 64 16 19 19 21
29 16 72 -9 64 -39 145 -71 188 -14 19 -25 37 -25 41 0 4 16 10 37 14 63 11
196 64 253 99 30 19 59 33 64 32 5 -1 22 -38 38 -81z m169 -87 c254 -404 369
-746 324 -957 -20 -95 -44 -149 -89 -198 -34 -38 -110 -82 -122 -71 -3 3 11
38 31 77 53 105 68 183 63 326 -5 140 -22 189 -85 246 -22 20 -44 38 -49 40
-6 2 -18 55 -28 117 -26 171 -91 417 -142 546 -18 46 19 -3 97 -126z m68 -634
c42 -35 61 -105 61 -218 -1 -108 -12 -162 -48 -234 -20 -40 -30 -51 -42 -45
-8 4 -43 6 -78 5 -58 -2 -65 0 -92 26 -27 28 -50 85 -50 129 0 44 97 90 170
80 l35 -5 -35 15 c-26 11 -55 14 -108 10 l-73 -6 5 27 c3 15 8 43 11 62 9 49
58 82 132 88 63 5 54 17 -19 27 -52 7 -53 16 -4 46 45 27 98 25 135 -7z
m-5402 -86 c-3 -8 -6 -5 -6 6 -1 11 2 17 5 13 3 -3 4 -12 1 -19z"/>
<path d="M2638 5979 l-31 -30 5 -97 c8 -151 76 -327 180 -465 81 -109 112
-109 171 -5 52 93 126 195 201 276 67 73 74 88 56 122 -36 68 -396 230 -510
230 -33 0 -48 -6 -72 -31z"/>
<path d="M5146 4774 c-61 -22 -102 -59 -130 -116 -32 -69 -41 -132 -26 -202
20 -95 45 -87 62 20 12 82 47 155 86 183 40 28 111 45 154 37 49 -9 118 -73
148 -135 30 -64 56 -67 53 -5 -3 84 -69 179 -148 215 -48 22 -143 24 -199 3z"/>
<path d="M3737 4496 c-131 -36 -207 -156 -194 -305 7 -81 14 -101 37 -101 14
0 19 15 28 80 23 159 96 240 218 240 84 0 147 -48 200 -151 41 -83 69 -45 40
54 -19 64 -80 139 -138 168 -52 26 -130 33 -191 15z"/>
<path d="M4555 4346 c-184 -46 -172 -145 21 -163 55 -5 64 -9 64 -26 0 -54
-79 -137 -132 -137 -37 0 -76 35 -84 75 -11 58 -34 37 -34 -29 0 -100 135
-134 222 -57 l32 29 38 -25 c21 -14 57 -28 80 -30 82 -9 149 67 117 133 -21
42 -36 40 -42 -8 -9 -65 -54 -86 -117 -53 -26 14 -30 21 -30 59 0 25 -2 51 -5
59 -4 9 9 24 35 41 47 31 65 64 56 99 -11 45 -111 60 -221 33z m110 -26 c-3
-5 -19 -10 -36 -10 -16 0 -29 5 -29 10 0 6 16 10 36 10 21 0 33 -4 29 -10z"/>
</g>
</svg>
